<mxfile host="app.diagrams.net" agent="Mozilla/5.0 (Macintosh; Intel Mac OS X 10_15_7) AppleWebKit/537.36 (KHTML, like Gecko) Chrome/135.0.0.0 Safari/537.36" version="26.2.15">
  <diagram name="第 1 页" id="vRpVN7Ww9zRFHD6vS2Fb">
    <mxGraphModel dx="1018" dy="655" grid="1" gridSize="10" guides="1" tooltips="1" connect="1" arrows="1" fold="1" page="1" pageScale="1" pageWidth="827" pageHeight="1169" math="0" shadow="0">
      <root>
        <mxCell id="0" />
        <mxCell id="1" parent="0" />
        <mxCell id="VtzdXUfwaXoc7ZhcKhH5-1" value="" style="endArrow=none;dashed=1;html=1;rounded=0;" edge="1" parent="1">
          <mxGeometry width="50" height="50" relative="1" as="geometry">
            <mxPoint x="100" y="250" as="sourcePoint" />
            <mxPoint x="840" y="250" as="targetPoint" />
          </mxGeometry>
        </mxCell>
        <mxCell id="VtzdXUfwaXoc7ZhcKhH5-9" value="" style="group;fontSize=14;" vertex="1" connectable="0" parent="1">
          <mxGeometry x="116" y="50" width="260" height="150" as="geometry" />
        </mxCell>
        <mxCell id="VtzdXUfwaXoc7ZhcKhH5-2" value="" style="rounded=1;whiteSpace=wrap;html=1;fillColor=#dae8fc;strokeColor=#6c8ebf;" vertex="1" parent="VtzdXUfwaXoc7ZhcKhH5-9">
          <mxGeometry width="260" height="150" as="geometry" />
        </mxCell>
        <mxCell id="VtzdXUfwaXoc7ZhcKhH5-3" value="微信" style="rounded=1;whiteSpace=wrap;html=1;flipV=0;flipH=0;fillColor=#fff2cc;strokeColor=#d6b656;" vertex="1" parent="VtzdXUfwaXoc7ZhcKhH5-9">
          <mxGeometry x="20" y="50" width="40" height="80" as="geometry" />
        </mxCell>
        <mxCell id="VtzdXUfwaXoc7ZhcKhH5-4" value="小程序&lt;span style=&quot;color: rgba(0, 0, 0, 0); font-family: monospace; font-size: 0px; text-align: start; text-wrap-mode: nowrap;&quot;&gt;%3CmxGraphModel%3E%3Croot%3E%3CmxCell%20id%3D%220%22%2F%3E%3CmxCell%20id%3D%221%22%20parent%3D%220%22%2F%3E%3CmxCell%20id%3D%222%22%20value%3D%22%E5%BE%AE%E4%BF%A1%22%20style%3D%22rounded%3D1%3BwhiteSpace%3Dwrap%3Bhtml%3D1%3BflipV%3D0%3BflipH%3D0%3B%22%20vertex%3D%221%22%20parent%3D%221%22%3E%3CmxGeometry%20x%3D%22200%22%20y%3D%2290%22%20width%3D%2240%22%20height%3D%2280%22%20as%3D%22geometry%22%2F%3E%3C%2FmxCell%3E%3C%2Froot%3E%3C%2FmxGraphModel%3E&lt;/span&gt;" style="rounded=1;whiteSpace=wrap;html=1;flipV=0;flipH=0;fillColor=#fff2cc;strokeColor=#d6b656;" vertex="1" parent="VtzdXUfwaXoc7ZhcKhH5-9">
          <mxGeometry x="80" y="50" width="40" height="80" as="geometry" />
        </mxCell>
        <mxCell id="VtzdXUfwaXoc7ZhcKhH5-5" value="App" style="rounded=1;whiteSpace=wrap;html=1;flipV=0;flipH=0;fillColor=#fff2cc;strokeColor=#d6b656;" vertex="1" parent="VtzdXUfwaXoc7ZhcKhH5-9">
          <mxGeometry x="140" y="50" width="40" height="80" as="geometry" />
        </mxCell>
        <mxCell id="VtzdXUfwaXoc7ZhcKhH5-6" value="..." style="rounded=1;whiteSpace=wrap;html=1;flipV=0;flipH=0;fillColor=#fff2cc;strokeColor=#d6b656;" vertex="1" parent="VtzdXUfwaXoc7ZhcKhH5-9">
          <mxGeometry x="200" y="50" width="40" height="80" as="geometry" />
        </mxCell>
        <mxCell id="VtzdXUfwaXoc7ZhcKhH5-7" value="跨平台" style="text;html=1;align=center;verticalAlign=middle;whiteSpace=wrap;rounded=0;fontSize=16;" vertex="1" parent="VtzdXUfwaXoc7ZhcKhH5-9">
          <mxGeometry x="100" y="10" width="60" height="30" as="geometry" />
        </mxCell>
        <mxCell id="VtzdXUfwaXoc7ZhcKhH5-13" value="" style="group" vertex="1" connectable="0" parent="1">
          <mxGeometry x="416" y="60" width="200" height="140" as="geometry" />
        </mxCell>
        <mxCell id="VtzdXUfwaXoc7ZhcKhH5-8" value="" style="rounded=1;whiteSpace=wrap;html=1;fillColor=#dae8fc;strokeColor=#6c8ebf;" vertex="1" parent="VtzdXUfwaXoc7ZhcKhH5-13">
          <mxGeometry width="200" height="140" as="geometry" />
        </mxCell>
        <mxCell id="VtzdXUfwaXoc7ZhcKhH5-10" value="斐波" style="rounded=1;whiteSpace=wrap;html=1;" vertex="1" parent="VtzdXUfwaXoc7ZhcKhH5-13">
          <mxGeometry x="20" y="35" width="40" height="85" as="geometry" />
        </mxCell>
        <mxCell id="VtzdXUfwaXoc7ZhcKhH5-11" value="三方" style="rounded=1;whiteSpace=wrap;html=1;" vertex="1" parent="VtzdXUfwaXoc7ZhcKhH5-13">
          <mxGeometry x="80" y="35" width="40" height="85" as="geometry" />
        </mxCell>
        <mxCell id="VtzdXUfwaXoc7ZhcKhH5-12" value="其他" style="rounded=1;whiteSpace=wrap;html=1;" vertex="1" parent="VtzdXUfwaXoc7ZhcKhH5-13">
          <mxGeometry x="140" y="35" width="40" height="85" as="geometry" />
        </mxCell>
        <mxCell id="VtzdXUfwaXoc7ZhcKhH5-15" value="" style="rounded=1;whiteSpace=wrap;html=1;fillColor=#dae8fc;strokeColor=#6c8ebf;" vertex="1" parent="1">
          <mxGeometry x="670" y="60" width="160" height="140" as="geometry" />
        </mxCell>
        <mxCell id="VtzdXUfwaXoc7ZhcKhH5-16" value="插件" style="rounded=1;whiteSpace=wrap;html=1;" vertex="1" parent="1">
          <mxGeometry x="700" y="87.5" width="40" height="85" as="geometry" />
        </mxCell>
        <mxCell id="VtzdXUfwaXoc7ZhcKhH5-17" value="..." style="rounded=1;whiteSpace=wrap;html=1;" vertex="1" parent="1">
          <mxGeometry x="760" y="87.5" width="40" height="85" as="geometry" />
        </mxCell>
        <mxCell id="VtzdXUfwaXoc7ZhcKhH5-19" value="业务" style="text;html=1;align=center;verticalAlign=middle;whiteSpace=wrap;rounded=0;fontSize=18;" vertex="1" parent="1">
          <mxGeometry x="20" y="110" width="60" height="30" as="geometry" />
        </mxCell>
        <mxCell id="VtzdXUfwaXoc7ZhcKhH5-20" value="授权" style="rounded=1;whiteSpace=wrap;html=1;fontSize=16;fillColor=#f8cecc;strokeColor=#b85450;" vertex="1" parent="1">
          <mxGeometry x="140" y="300" width="90" height="50" as="geometry" />
        </mxCell>
        <mxCell id="VtzdXUfwaXoc7ZhcKhH5-21" value="分享" style="rounded=1;whiteSpace=wrap;html=1;fontSize=16;fillColor=#f8cecc;strokeColor=#b85450;" vertex="1" parent="1">
          <mxGeometry x="260" y="300" width="90" height="50" as="geometry" />
        </mxCell>
        <mxCell id="VtzdXUfwaXoc7ZhcKhH5-22" value="插件" style="rounded=1;whiteSpace=wrap;html=1;fontSize=16;fillColor=#f8cecc;strokeColor=#b85450;" vertex="1" parent="1">
          <mxGeometry x="710" y="300" width="90" height="50" as="geometry" />
        </mxCell>
        <mxCell id="VtzdXUfwaXoc7ZhcKhH5-23" value="埋点" style="rounded=1;whiteSpace=wrap;html=1;fontSize=16;fillColor=#f8cecc;strokeColor=#b85450;" vertex="1" parent="1">
          <mxGeometry x="471" y="300" width="90" height="50" as="geometry" />
        </mxCell>
        <mxCell id="VtzdXUfwaXoc7ZhcKhH5-25" value="插件" style="text;html=1;align=center;verticalAlign=middle;whiteSpace=wrap;rounded=0;fontSize=18;" vertex="1" parent="1">
          <mxGeometry x="20" y="310" width="60" height="30" as="geometry" />
        </mxCell>
        <mxCell id="VtzdXUfwaXoc7ZhcKhH5-26" value="" style="endArrow=none;dashed=1;html=1;rounded=0;" edge="1" parent="1">
          <mxGeometry width="50" height="50" relative="1" as="geometry">
            <mxPoint x="100" y="400" as="sourcePoint" />
            <mxPoint x="840" y="400" as="targetPoint" />
            <Array as="points">
              <mxPoint x="280" y="400" />
              <mxPoint x="460" y="400" />
            </Array>
          </mxGeometry>
        </mxCell>
        <mxCell id="VtzdXUfwaXoc7ZhcKhH5-27" value="基座" style="text;html=1;align=center;verticalAlign=middle;whiteSpace=wrap;rounded=0;fontSize=18;" vertex="1" parent="1">
          <mxGeometry x="20" y="520" width="60" height="30" as="geometry" />
        </mxCell>
        <mxCell id="VtzdXUfwaXoc7ZhcKhH5-28" value="" style="rounded=1;whiteSpace=wrap;html=1;fillColor=#e1d5e7;strokeColor=#9673a6;" vertex="1" parent="1">
          <mxGeometry x="110" y="440" width="720" height="190" as="geometry" />
        </mxCell>
        <mxCell id="VtzdXUfwaXoc7ZhcKhH5-29" value="流程引擎(Flow engine)" style="rounded=1;whiteSpace=wrap;html=1;fontSize=14;fillColor=#d5e8d4;strokeColor=#82b366;" vertex="1" parent="1">
          <mxGeometry x="200" y="470" width="540" height="50" as="geometry" />
        </mxCell>
        <mxCell id="VtzdXUfwaXoc7ZhcKhH5-30" value="UI 渲染" style="rounded=1;whiteSpace=wrap;html=1;fontSize=14;" vertex="1" parent="1">
          <mxGeometry x="240" y="555" width="150" height="50" as="geometry" />
        </mxCell>
        <mxCell id="VtzdXUfwaXoc7ZhcKhH5-31" value="业务逻辑" style="rounded=1;whiteSpace=wrap;html=1;fontSize=14;" vertex="1" parent="1">
          <mxGeometry x="520" y="555" width="149" height="50" as="geometry" />
        </mxCell>
        <mxCell id="VtzdXUfwaXoc7ZhcKhH5-32" value="" style="endArrow=classic;html=1;rounded=0;entryX=0.25;entryY=0;entryDx=0;entryDy=0;exitX=0.144;exitY=1;exitDx=0;exitDy=0;exitPerimeter=0;" edge="1" parent="1" source="VtzdXUfwaXoc7ZhcKhH5-29" target="VtzdXUfwaXoc7ZhcKhH5-30">
          <mxGeometry width="50" height="50" relative="1" as="geometry">
            <mxPoint x="280" y="520" as="sourcePoint" />
            <mxPoint x="330" y="470" as="targetPoint" />
          </mxGeometry>
        </mxCell>
        <mxCell id="VtzdXUfwaXoc7ZhcKhH5-35" value="动作" style="edgeLabel;html=1;align=center;verticalAlign=middle;resizable=0;points=[];labelBackgroundColor=light-dark(#FFFFFF,#EDEDED);textShadow=1;" vertex="1" connectable="0" parent="VtzdXUfwaXoc7ZhcKhH5-32">
          <mxGeometry x="0.1423" y="1" relative="1" as="geometry">
            <mxPoint as="offset" />
          </mxGeometry>
        </mxCell>
        <mxCell id="VtzdXUfwaXoc7ZhcKhH5-33" value="" style="endArrow=classic;html=1;rounded=0;" edge="1" parent="1">
          <mxGeometry width="50" height="50" relative="1" as="geometry">
            <mxPoint x="335" y="554" as="sourcePoint" />
            <mxPoint x="335" y="520" as="targetPoint" />
          </mxGeometry>
        </mxCell>
        <mxCell id="VtzdXUfwaXoc7ZhcKhH5-34" value="事件" style="edgeLabel;html=1;align=center;verticalAlign=middle;resizable=0;points=[];" vertex="1" connectable="0" parent="VtzdXUfwaXoc7ZhcKhH5-33">
          <mxGeometry x="-0.1765" y="-1" relative="1" as="geometry">
            <mxPoint as="offset" />
          </mxGeometry>
        </mxCell>
        <mxCell id="VtzdXUfwaXoc7ZhcKhH5-36" value="" style="endArrow=classic;html=1;rounded=0;entryX=0.661;entryY=1.02;entryDx=0;entryDy=0;entryPerimeter=0;exitX=0.25;exitY=0;exitDx=0;exitDy=0;" edge="1" parent="1" source="VtzdXUfwaXoc7ZhcKhH5-31" target="VtzdXUfwaXoc7ZhcKhH5-29">
          <mxGeometry width="50" height="50" relative="1" as="geometry">
            <mxPoint x="345" y="564" as="sourcePoint" />
            <mxPoint x="345" y="530" as="targetPoint" />
          </mxGeometry>
        </mxCell>
        <mxCell id="VtzdXUfwaXoc7ZhcKhH5-37" value="条件/动作" style="edgeLabel;html=1;align=center;verticalAlign=middle;resizable=0;points=[];" vertex="1" connectable="0" parent="VtzdXUfwaXoc7ZhcKhH5-36">
          <mxGeometry x="-0.1765" y="-1" relative="1" as="geometry">
            <mxPoint as="offset" />
          </mxGeometry>
        </mxCell>
        <mxCell id="VtzdXUfwaXoc7ZhcKhH5-38" value="" style="endArrow=classic;html=1;rounded=0;exitX=0.772;exitY=1;exitDx=0;exitDy=0;exitPerimeter=0;entryX=0.651;entryY=0;entryDx=0;entryDy=0;entryPerimeter=0;" edge="1" parent="1" source="VtzdXUfwaXoc7ZhcKhH5-29" target="VtzdXUfwaXoc7ZhcKhH5-31">
          <mxGeometry width="50" height="50" relative="1" as="geometry">
            <mxPoint x="567" y="565" as="sourcePoint" />
            <mxPoint x="617" y="550" as="targetPoint" />
          </mxGeometry>
        </mxCell>
        <mxCell id="VtzdXUfwaXoc7ZhcKhH5-39" value="结果" style="edgeLabel;html=1;align=center;verticalAlign=middle;resizable=0;points=[];" vertex="1" connectable="0" parent="VtzdXUfwaXoc7ZhcKhH5-38">
          <mxGeometry x="-0.1765" y="-1" relative="1" as="geometry">
            <mxPoint as="offset" />
          </mxGeometry>
        </mxCell>
      </root>
    </mxGraphModel>
  </diagram>
</mxfile>
